<svg width="145" height="37" viewBox="0 0 145 37" fill="none" xmlns="http://www.w3.org/2000/svg">
<g clip-path="url(#clip0_4279_42514)">
<path d="M18.379 21.4029H13.5477V13.5319H4.89168V21.4029H0V1.97705H4.89168V9.80777H13.5477V1.97705H18.379V21.4029Z" fill="#3B3B3D"/>
<path d="M30.0945 10.1493C33.0536 11.3572 34.5231 13.2494 34.5231 15.806C34.5231 17.6378 33.8588 19.0872 32.5101 20.1541C31.1614 21.221 29.3295 21.7444 26.9743 21.7444H26.632C25.8268 21.7444 24.921 21.6236 23.9144 21.3821C22.928 21.1405 21.6598 20.6373 20.1501 19.832V15.5644C21.5189 16.3897 22.7066 17.0138 23.7131 17.4164C24.7197 17.819 25.7866 18.0203 26.9139 18.0203C28.7457 18.0203 29.6717 17.4164 29.6717 16.2086C29.6717 15.7456 29.4905 15.343 29.1483 15.041C28.8061 14.7391 28.1821 14.4371 27.2963 14.1553C26.8535 14.0748 26.1489 13.8332 25.1625 13.4306C24.1761 13.028 23.2904 12.5851 22.5053 12.1422C21.7202 11.6792 21.0761 11.0351 20.5527 10.1493C20.0293 9.28372 19.7676 8.35772 19.7676 7.37134C19.7676 5.72064 20.4319 4.35178 21.7806 3.28487C23.1293 2.19783 24.8404 1.67444 26.9139 1.67444C29.0275 1.67444 31.2822 2.19783 33.6777 3.26474V7.27068C32.1478 6.52586 30.8795 6.0226 29.8932 5.72064C28.9068 5.41869 27.9808 5.27778 27.0749 5.27778C26.3099 5.27778 25.706 5.41869 25.2229 5.72064C24.7398 6.0226 24.4982 6.38495 24.4982 6.84795C24.4982 7.25055 24.6995 7.63303 25.1223 8.01551C25.545 8.39798 25.9476 8.65968 26.3703 8.80059C26.7931 8.9415 27.0548 9.02203 27.1957 9.04216C27.3567 9.06229 28.323 9.44476 30.0945 10.1493Z" fill="#3B3B3D"/>
<path d="M35.692 1.97705H42.8383C48.0118 1.97705 50.5885 3.9297 50.5885 7.83499C50.5885 9.94868 49.8839 11.4786 48.4748 12.4046C47.0657 13.3306 44.6903 13.7936 41.3285 13.7936H40.5636V21.4029H35.6719V1.97705H35.692ZM40.5837 5.54013V10.0292H42.9188C44.6903 10.0292 45.5961 9.28438 45.5961 7.81486C45.5961 6.30508 44.4286 5.54013 42.0935 5.54013H40.5837Z" fill="#3B3B3D"/>
<path d="M74.5416 20.0538C73.0721 20.6175 71.824 21.0402 70.7973 21.322C69.7707 21.6038 68.6836 21.7246 67.496 21.7246C64.5569 21.7246 62.0809 20.7584 60.0276 18.8057C57.9944 16.8531 56.9678 14.4777 56.9678 11.6796C56.9678 8.88145 58.0146 6.50607 60.088 4.55343C62.1614 2.60078 64.6978 1.63452 67.6973 1.63452C68.4622 1.63452 69.2876 1.71504 70.2337 1.89622C71.1597 2.05726 72.5487 2.52026 74.3805 3.26508V6.28464C72.911 5.53981 71.6629 5.03655 70.6564 4.7346C69.6499 4.43264 68.6434 4.29173 67.6167 4.29173C65.4427 4.29173 63.6309 5.05668 62.1614 6.56646C60.712 8.07624 59.9672 9.80745 59.9672 11.7601C59.9672 13.8335 60.6919 15.5849 62.1413 16.994C63.5907 18.4031 65.3823 19.1077 67.496 19.1077C68.0395 19.1077 68.6233 19.0674 69.207 18.9668C69.8109 18.8661 70.6363 18.6447 71.7233 18.2622V14.4576H68.0596V11.8406H74.5416V20.0538Z" fill="#3B3B3D"/>
<path d="M91.3313 21.4029H87.9494L83.3798 14.4981C82.8966 13.7936 82.3531 13.3306 81.7895 13.089C81.2258 12.8475 80.3602 12.7267 79.1725 12.7267V21.3827H76.3945V1.97705H82.0512C83.9032 1.97705 85.3928 2.41992 86.5201 3.30566C87.6474 4.19139 88.2111 5.37908 88.2111 6.8486C88.2111 8.29799 87.9292 9.42529 87.3857 10.1902C86.8422 10.9753 85.8961 11.6195 84.5473 12.1228C85.0909 12.465 85.6344 12.9884 86.1376 13.6929C86.6409 14.3975 88.3721 16.9541 91.3313 21.4029ZM79.1725 10.4117C81.87 10.4117 83.5811 10.1701 84.2856 9.70712C84.9902 9.24412 85.3324 8.45903 85.3324 7.37199C85.3324 6.26482 85.0707 5.45961 84.5473 5.01674C84.0239 4.55374 82.7356 4.3323 80.6823 4.3323L79.1725 4.35244V10.4117Z" fill="#3B3B3D"/>
<path d="M130.023 1.97705V14.478C130.023 16.793 129.278 18.5645 127.808 19.8327C126.339 21.1009 124.185 21.7249 121.387 21.7249C119.313 21.7249 117.461 21.1412 115.811 19.9937C114.16 18.8262 113.334 16.5716 113.334 13.2501V1.97705H116.112V13.1293C116.112 15.0618 116.535 16.5514 117.381 17.5781C118.226 18.6047 119.595 19.1281 121.507 19.1281C125.393 19.1281 127.325 17.558 127.325 14.4176V1.97705H130.023Z" fill="#3B3B3D"/>
<path d="M132.376 1.97705H138.416C140.408 1.97705 141.979 2.48031 143.166 3.48683C144.334 4.49335 144.918 5.84208 144.918 7.55317C144.918 9.24412 144.334 10.5727 143.166 11.5591C141.999 12.5455 140.408 13.0286 138.416 13.0286H135.154V21.4029H132.376V1.97705ZM135.175 10.5727H138.154C139.523 10.5727 140.489 10.3312 141.093 9.86816C141.697 9.40516 141.979 8.62008 141.979 7.53304C141.979 6.46613 141.677 5.70117 141.073 5.19791C140.469 4.71478 139.482 4.45309 138.154 4.45309H135.175V10.5727Z" fill="#3B3B3D"/>
<path d="M101.637 20.779C99.1815 20.779 96.7659 19.7524 95.0347 18.0211C93.3035 16.2899 92.3171 13.8542 92.3372 11.4184C92.3171 8.9826 93.3035 6.54683 95.0347 4.81562C96.7458 3.06427 99.1815 2.05775 101.637 2.05775C104.093 2.03762 106.529 3.04414 108.28 4.77536C110.032 6.50657 111.058 8.94234 111.058 11.4184C111.058 13.8944 110.032 16.3302 108.28 18.0614C108.039 18.303 107.757 18.5445 107.495 18.766C107.817 18.766 108.16 18.766 108.482 18.766C108.562 18.6854 108.643 18.6049 108.723 18.5043C110.434 16.4912 111.34 13.9548 111.34 11.4184C111.34 8.88195 110.434 6.34552 108.723 4.33249C107.032 2.31945 104.496 0.890193 101.637 0.568107C100.228 0.407064 98.7387 0.527846 97.3094 0.970714C95.9003 1.41358 94.5314 2.13828 93.3639 3.14479C92.2164 4.15131 91.2502 5.41953 90.606 6.84878C90.4651 7.21113 90.3041 7.57348 90.1833 7.93582C90.0826 8.3183 89.9618 8.68065 89.8612 9.06312C89.8008 9.4456 89.7203 9.82808 89.68 10.2307L89.6196 11.3982C89.6196 12.9684 89.9618 14.5386 90.606 15.9678C91.2502 17.3971 92.1963 18.6653 93.3639 19.6718C94.5113 20.6784 95.8802 21.403 97.3094 21.866C98.7387 22.3089 100.228 22.4096 101.637 22.2687C102.865 22.1277 104.476 21.6043 105.563 21.081C105.704 21.1212 104.194 21.0407 103.248 20.6381C102.704 20.7387 102.161 20.7991 101.637 20.779Z" fill="#3B3B3D"/>
<path d="M17.1921 33.7225C16.6285 33.9238 16.1655 34.0848 15.7629 34.1855C15.3804 34.2861 14.9577 34.3264 14.5349 34.3264C13.5888 34.3264 12.8037 34.0446 12.1998 33.4608C11.5959 32.877 11.2939 32.1523 11.2939 31.2666C11.2939 31.1659 11.2939 31.0653 11.3141 31.0049C11.3141 30.9445 11.3745 30.6224 11.4751 30.0386C11.5758 29.4548 12.0589 28.8107 12.9245 28.1061C13.7901 27.4015 14.7765 27.0392 15.8434 27.0392C16.1252 27.0392 16.4272 27.0794 16.7493 27.1398C17.0714 27.2002 17.5545 27.3613 18.1584 27.623L17.9772 28.71C17.4941 28.4483 17.0714 28.2671 16.7291 28.1464C16.3869 28.0457 16.0246 27.9853 15.6622 27.9853C14.8772 27.9853 14.1726 28.2671 13.5485 28.8107C12.9245 29.3542 12.5823 29.8172 12.5219 30.2198C12.4615 30.6023 12.4212 30.8438 12.4212 30.9042C12.4212 30.9646 12.4011 31.0451 12.4011 31.1458C12.4011 31.79 12.6226 32.3133 13.0453 32.7361C13.468 33.1588 14.0317 33.3601 14.7161 33.3601C14.9174 33.3601 15.1187 33.34 15.3401 33.2997C15.5616 33.2595 15.8837 33.1789 16.3064 33.0582L16.5278 31.6893H15.1992L15.3603 30.7432H17.6954L17.1921 33.7225Z" fill="#3B3B3D"/>
<path d="M19.3663 34.2048H18.4604L19.628 27.1793H20.5339L19.3663 34.2048Z" fill="#3B3B3D"/>
<path d="M25.7271 31.8498C25.6264 32.5342 25.2842 33.0979 24.7206 33.581C24.1569 34.044 23.5329 34.2856 22.8484 34.2856C22.2445 34.2856 21.7614 34.0843 21.3588 33.6817C20.9562 33.2791 20.7549 32.7959 20.7549 32.2323C20.7549 32.1115 20.7951 31.8699 20.8555 31.4673C20.9159 31.0849 21.238 30.642 21.8017 30.179C22.3653 29.716 22.9894 29.4744 23.6738 29.4744C24.2576 29.4744 24.7608 29.6757 25.1433 30.0582C25.5459 30.4407 25.7472 30.9238 25.7472 31.4875C25.7673 31.6082 25.7472 31.729 25.7271 31.8498ZM23.5127 30.3602C23.1101 30.3602 22.7277 30.5011 22.3854 30.803C22.0432 31.105 21.8419 31.3868 21.8017 31.6485C21.7614 31.9102 21.7413 32.0712 21.7413 32.1115C21.7413 32.4739 21.8621 32.7758 22.1036 33.0375C22.3452 33.2992 22.6471 33.42 23.0095 33.42C23.4121 33.42 23.7946 33.2791 24.1368 32.9771C24.479 32.6752 24.6602 32.3933 24.7004 32.1115C24.7407 31.8498 24.7608 31.6888 24.7608 31.6284C24.7608 31.2862 24.64 30.9842 24.3985 30.7225C24.177 30.4809 23.8751 30.3602 23.5127 30.3602Z" fill="#3B3B3D"/>
<path d="M27.6585 29.8368C28.1215 29.5953 28.5845 29.4745 28.9871 29.4745C29.5508 29.4745 29.9936 29.6557 30.3157 29.9979C30.6378 30.3602 30.819 30.8031 30.819 31.3869C30.819 31.4674 30.819 31.5681 30.819 31.6486C30.7988 31.7291 30.7586 31.9908 30.6781 32.3934C30.6177 32.796 30.3157 33.2187 29.7923 33.6616C29.2689 34.1045 28.6046 34.3259 27.7994 34.3259C27.578 34.3259 27.3364 34.3058 27.0747 34.2655C26.813 34.2253 26.4507 34.1447 26.0078 34.0038L27.1552 27.1998H28.0812L27.6585 29.8368ZM27.0747 33.259C27.2962 33.3194 27.4773 33.3597 27.6182 33.3999C27.7592 33.4201 27.9001 33.4402 28.041 33.4402C28.504 33.4402 28.9066 33.2993 29.2085 33.0376C29.5306 32.7759 29.7118 32.4941 29.7521 32.1921C29.7923 31.9103 29.8326 31.709 29.8326 31.5882C29.8326 31.2057 29.7319 30.9038 29.5105 30.6622C29.2891 30.4206 29.0274 30.2998 28.6852 30.2998C28.5442 30.2998 28.3832 30.32 28.202 30.3804C28.0209 30.4206 27.7994 30.5213 27.5176 30.6823L27.0747 33.259Z" fill="#3B3B3D"/>
<path d="M35.3883 33.864C34.9656 34.1458 34.5629 34.2867 34.2207 34.2867C33.9188 34.2867 33.7779 34.1257 33.7779 33.8237C33.4759 34.0049 33.2142 34.1056 33.0129 34.1861C32.7915 34.2465 32.5902 34.2867 32.3687 34.2867C32.0064 34.2867 31.7246 34.2062 31.5233 34.025C31.3018 33.864 31.2012 33.6224 31.2012 33.3406C31.2012 33.3003 31.2213 33.1796 31.2616 32.9783C31.3018 32.777 31.4629 32.5555 31.785 32.2938C32.0869 32.0321 32.5096 31.8308 33.033 31.6698L34.2006 31.3074L34.2409 31.1464C34.261 31.0457 34.261 30.9652 34.261 30.925C34.261 30.5224 34.0194 30.3211 33.5162 30.3211C33.2545 30.3211 32.9928 30.3613 32.7311 30.462C32.4694 30.5626 32.1674 30.7237 31.785 30.9652L31.9259 30.0594C32.57 29.6567 33.1739 29.4554 33.7577 29.4554C34.1603 29.4554 34.5026 29.536 34.7844 29.6769C35.0662 29.8178 35.2071 30.1399 35.2071 30.6431C35.2071 30.784 35.187 30.9451 35.1669 31.1061L34.8448 33.0789C34.8246 33.1796 34.8246 33.24 34.8246 33.2802C34.8246 33.4413 34.8649 33.5218 34.9655 33.5218C35.0662 33.5218 35.2474 33.4413 35.5091 33.2802L35.3883 33.864ZM33.8584 33.2601L34.0798 31.8912C33.5564 32.0321 33.1337 32.1932 32.7915 32.3945C32.4694 32.5756 32.2882 32.7367 32.2681 32.8776C32.248 33.0185 32.2278 33.099 32.2278 33.1594C32.2278 33.4614 32.4291 33.6023 32.8519 33.6023C33.1739 33.6023 33.5162 33.4815 33.8584 33.2601Z" fill="#3B3B3D"/>
<path d="M36.5987 34.2053H35.6929L36.8604 27.1798H37.7663L36.5987 34.2053Z" fill="#3B3B3D"/>
<path d="M46.5419 34.2048H42.2139L43.3814 27.1793H47.6088L47.4478 28.0852H44.2269L43.8646 30.219H47.0049L46.8439 31.1249H43.7035L43.3412 33.3191H46.7029L46.5419 34.2048Z" fill="#3B3B3D"/>
<path d="M52.1387 34.2061H51.0114L49.9042 32.495L48.2938 34.2061H47.1665L49.4412 31.8307L47.9918 29.5761H49.1393L50.1055 31.1262L51.5952 29.5761H52.7426L50.5685 31.8106L52.1387 34.2061Z" fill="#3B3B3D"/>
<path d="M54.1292 29.8368C54.3708 29.716 54.5923 29.6153 54.7936 29.5549C54.9949 29.4946 55.1962 29.4744 55.4579 29.4744C56.0014 29.4744 56.4442 29.6556 56.7865 30.0179C57.1287 30.3803 57.2897 30.8433 57.2897 31.4271C57.2897 31.5076 57.2897 31.6082 57.2897 31.6888C57.2696 31.7693 57.2293 32.0109 57.1689 32.3732C57.1085 32.7355 56.8267 33.1583 56.3436 33.6012C55.8605 34.0642 55.2767 34.2856 54.6526 34.2856C54.4513 34.2856 54.2702 34.2655 54.1091 34.2252C53.9481 34.1849 53.7266 34.0843 53.4649 33.9232L53.0422 36.4999H52.1162L53.2838 29.5348H54.2098L54.1292 29.8368ZM53.5857 33.1784C53.9279 33.3999 54.25 33.5005 54.552 33.5005C54.9747 33.5005 55.3572 33.3596 55.6793 33.0576C56.0014 32.7557 56.1825 32.4537 56.2228 32.1518C56.2832 31.8498 56.3033 31.6284 56.3033 31.5076C56.3033 31.1251 56.2027 30.8232 55.9812 30.6017C55.7598 30.3803 55.478 30.2595 55.0955 30.2595C54.7533 30.2595 54.3909 30.3602 54.0085 30.5816L53.5857 33.1784Z" fill="#3B3B3D"/>
<path d="M61.4981 33.864C61.0754 34.1458 60.6728 34.2867 60.3306 34.2867C60.0286 34.2867 59.8877 34.1257 59.8877 33.8237C59.5858 34.0049 59.3241 34.1056 59.1228 34.1861C58.9013 34.2465 58.7 34.2867 58.4786 34.2867C58.1162 34.2867 57.8344 34.2062 57.6331 34.025C57.4117 33.864 57.311 33.6224 57.311 33.3406C57.311 33.3003 57.3312 33.1796 57.3714 32.9783C57.4117 32.777 57.5727 32.5555 57.8948 32.2938C58.1968 32.0321 58.6195 31.8308 59.1429 31.6698L60.3105 31.3074L60.3507 31.1464C60.3708 31.0457 60.3708 30.9652 60.3708 30.925C60.3708 30.5224 60.1293 30.3211 59.626 30.3211C59.3643 30.3211 59.1026 30.3613 58.8409 30.462C58.5792 30.5626 58.2773 30.7237 57.8948 30.9652L58.0357 30.0594C58.6799 29.6567 59.2838 29.4554 59.8676 29.4554C60.2702 29.4554 60.6124 29.536 60.8942 29.6769C61.1761 29.8178 61.317 30.1399 61.317 30.6431C61.317 30.784 61.2968 30.9451 61.2767 31.1061L60.9546 33.0789C60.9345 33.1796 60.9345 33.24 60.9345 33.2802C60.9345 33.4413 60.9748 33.5218 61.0754 33.5218C61.1761 33.5218 61.3572 33.4413 61.6189 33.2802L61.4981 33.864ZM59.9682 33.2601L60.1897 31.8912C59.6663 32.0321 59.2435 32.1932 58.9013 32.3945C58.5792 32.5756 58.3981 32.7367 58.3779 32.8776C58.3578 33.0185 58.3377 33.099 58.3377 33.1594C58.3377 33.4614 58.539 33.6023 58.9617 33.6023C59.2838 33.6023 59.6059 33.4815 59.9682 33.2601Z" fill="#3B3B3D"/>
<path d="M65.7063 34.2057H64.8004L65.2634 31.3874C65.2836 31.2667 65.3037 31.1459 65.3037 31.0654C65.3037 30.542 65.0621 30.2803 64.5589 30.2803C64.2972 30.2803 64.0757 30.3205 63.8946 30.4011C63.6933 30.4816 63.4718 30.6426 63.2303 30.8842L62.6666 34.2057H61.7607L62.5458 29.5757H63.4517L63.351 30.1394C63.653 29.9179 63.9147 29.7569 64.1361 29.6562C64.3576 29.5556 64.6193 29.5153 64.8809 29.5153C65.3238 29.5153 65.666 29.6361 65.8875 29.8575C66.1089 30.079 66.2498 30.4011 66.2498 30.8037C66.2498 30.9043 66.2297 31.0251 66.2096 31.1459L65.7063 34.2057Z" fill="#3B3B3D"/>
<path d="M69.9539 30.7628C69.7526 30.6621 69.6117 30.5816 69.5111 30.5413C69.4104 30.5011 69.2695 30.4407 69.0682 30.3803C68.8669 30.3199 68.6857 30.2796 68.5045 30.2796C68.3435 30.2796 68.2026 30.3199 68.1019 30.4004C67.9811 30.4809 67.9208 30.5816 67.9006 30.6822C67.8604 30.9238 68.0617 31.1654 68.5448 31.4271L68.6857 31.5076L68.8065 31.568L68.9071 31.6284L68.9877 31.6686L69.0279 31.6888C69.5714 31.9706 69.8331 32.3128 69.8331 32.7758C69.8331 32.8362 69.813 32.9771 69.7727 33.2187C69.7325 33.4602 69.5312 33.7018 69.189 33.9434C68.8468 34.2051 68.424 34.3258 67.9208 34.3258C67.6591 34.3258 67.4175 34.3057 67.1961 34.2453C66.9545 34.1849 66.6928 34.0642 66.3506 33.9031L66.5116 32.9167C66.8337 33.118 67.0954 33.2791 67.3168 33.3596C67.5383 33.4602 67.7597 33.5005 67.9811 33.5005C68.2026 33.5005 68.3636 33.4602 68.5247 33.3596C68.6857 33.2589 68.7662 33.1382 68.7864 32.9771C68.8065 32.8563 68.7864 32.7557 68.726 32.6953C68.6656 32.6349 68.5649 32.5544 68.424 32.4537C68.2831 32.3531 68.1422 32.2725 68.0214 32.2122L67.9006 32.1316C67.6792 32.0109 67.5181 31.9102 67.4175 31.8498C67.3168 31.7894 67.2162 31.6888 67.0954 31.5479C66.9746 31.4069 66.9344 31.1855 66.9344 30.8836C66.9344 30.803 66.9545 30.642 66.9948 30.4407C67.035 30.2193 67.1961 30.0179 67.5181 29.7965C67.8201 29.5751 68.2227 29.4744 68.6857 29.4744C68.9071 29.4744 69.0883 29.4946 69.2896 29.5348C69.4708 29.5751 69.6117 29.6153 69.6922 29.6556C69.7728 29.6959 69.9137 29.7563 70.0948 29.8569L69.9539 30.7628Z" fill="#3B3B3D"/>
<path d="M71.2213 34.2075H70.3154L71.1005 29.5776H72.0064L71.2213 34.2075ZM71.6843 28.712C71.5233 28.712 71.4025 28.6717 71.3219 28.571C71.2414 28.4905 71.2213 28.3697 71.2414 28.2087C71.2616 28.0477 71.3421 27.9269 71.4427 27.8262C71.5434 27.7256 71.6843 27.6853 71.8453 27.6853C72.0064 27.6853 72.1272 27.7256 72.2077 27.8262C72.2882 27.9067 72.3083 28.0275 72.2882 28.1886C72.2077 28.5509 72.0064 28.712 71.6843 28.712Z" fill="#3B3B3D"/>
<path d="M77.502 31.8498C77.4013 32.5342 77.0591 33.0979 76.4955 33.581C75.9318 34.044 75.3078 34.2856 74.6233 34.2856C74.0194 34.2856 73.5363 34.0843 73.1337 33.6817C72.7311 33.2791 72.5298 32.7959 72.5298 32.2323C72.5298 32.1115 72.57 31.8699 72.6304 31.4673C72.6908 31.0849 73.0129 30.642 73.5766 30.179C74.1402 29.716 74.7643 29.4744 75.4487 29.4744C76.0325 29.4744 76.5357 29.6757 76.9182 30.0582C77.3208 30.4407 77.5221 30.9238 77.5221 31.4875C77.5423 31.6082 77.5221 31.729 77.502 31.8498ZM75.2876 30.3602C74.885 30.3602 74.5026 30.5011 74.1603 30.803C73.8181 31.105 73.6168 31.3868 73.5766 31.6485C73.5363 31.9102 73.5162 32.0712 73.5162 32.1115C73.5162 32.4739 73.637 32.7758 73.8785 33.0375C74.1201 33.2992 74.422 33.42 74.7844 33.42C75.187 33.42 75.5695 33.2791 75.9117 32.9771C76.2539 32.6752 76.4351 32.3933 76.4753 32.1115C76.5156 31.8498 76.5357 31.6888 76.5357 31.6284C76.5357 31.2862 76.4149 30.9842 76.1734 30.7225C75.9519 30.4809 75.65 30.3602 75.2876 30.3602Z" fill="#3B3B3D"/>
<path d="M81.7092 34.2057H80.8034L81.2664 31.3874C81.2865 31.2667 81.3066 31.1459 81.3066 31.0654C81.3066 30.542 81.0651 30.2803 80.5618 30.2803C80.3001 30.2803 80.0787 30.3205 79.8975 30.4011C79.6962 30.4816 79.4748 30.6426 79.2332 30.8842L78.6695 34.2057H77.7637L78.5488 29.5757H79.4546L79.354 30.1394C79.6559 29.9179 79.9176 29.7569 80.1391 29.6562C80.3605 29.5556 80.6222 29.5153 80.8839 29.5153C81.3267 29.5153 81.669 29.6361 81.8904 29.8575C82.132 30.079 82.2527 30.4011 82.2527 30.8037C82.2527 30.9043 82.2326 31.0251 82.2125 31.1459L81.7092 34.2057Z" fill="#3B3B3D"/>
<path d="M95.5786 14.9404C95.3572 14.6183 95.1357 14.256 94.9546 13.9137C94.8942 13.793 94.713 13.5514 94.713 13.5514C94.713 13.5514 94.5721 14.0949 94.5318 14.2358C94.4714 14.4573 94.25 14.5982 94.0286 14.578C93.8071 14.5579 93.6058 14.417 93.5052 14.2358C93.3844 14.0547 93.3643 13.8131 93.3643 13.6118C93.3643 12.6858 93.8474 11.8202 94.089 10.9143C94.1091 10.8137 94.2097 10.5922 94.2701 10.5117C94.3708 10.3305 94.5117 10.3104 94.7331 10.2903C95.1559 10.2701 95.5987 10.713 95.941 10.9344C96.4039 11.2364 96.8871 11.5182 97.3702 11.8202C97.5111 11.9007 97.5916 11.941 97.6923 12.0617C97.8533 12.3033 98.0345 12.6455 97.9137 12.9072C97.8936 12.9676 97.7728 13.1488 97.7124 13.2092C97.6319 13.2696 97.4507 13.33 97.3299 13.3098C97.0079 13.2494 96.7059 13.0683 96.4039 12.9877C96.3838 12.9877 96.5851 13.4507 96.5851 13.4709C96.6858 13.6319 96.7864 13.8131 96.9072 13.9741C97.1286 14.3164 97.3903 14.6384 97.652 14.9605C98.1754 15.5846 98.7592 16.1683 99.4034 16.6716C100.591 17.6379 101.96 18.3827 103.409 18.8859C103.45 18.9061 103.49 18.9061 103.55 18.9262C105.08 19.4295 106.61 19.6308 108.22 19.4899C109.771 19.3489 111.18 19.0872 112.528 18.2418C112.649 18.1613 112.83 18.1009 112.911 18.2619C112.991 18.4229 111.884 19.1074 111.763 19.1678C111.321 19.4295 110.858 19.6308 110.354 19.7515C109.167 20.0535 107.979 20.3353 106.751 20.3756C104.154 20.436 101.296 19.7113 99.0813 18.3223C98.1956 17.7586 97.3903 17.0742 96.6858 16.3093C96.2228 15.8865 95.9007 15.4235 95.5786 14.9404Z" fill="#046839"/>
<path d="M100.954 5.37844C100.894 5.39857 100.873 5.37844 100.894 5.31804C100.853 5.13687 100.612 5.01609 100.672 4.79466C100.632 4.79466 100.612 4.79466 100.592 4.75439C100.37 4.81479 100.129 4.75439 99.9675 5.01609C99.9273 5.07648 99.7461 5.13687 99.6253 4.99596C99.3837 4.71413 98.8201 4.694 98.5584 4.97583C98.3571 5.19726 98.0954 5.35831 98.0149 5.62C97.8136 5.72065 98.0753 5.29791 97.8136 5.51935C97.7733 5.55961 97.7129 5.57974 97.6525 5.57974C97.2902 5.66026 96.9077 5.70052 96.646 6.02261C96.6259 6.04274 96.6057 6.04274 96.5856 6.04274C96.5856 6.16352 96.5051 6.26417 96.5655 6.38495C96.7869 6.58626 97.0687 6.22391 97.3103 6.46548C97.0687 6.66678 96.6863 6.50574 96.485 6.88821C96.4648 6.68691 96.4648 6.546 96.4648 6.40508C95.9012 6.42522 95.8005 6.86808 95.6395 7.27069C95.4382 7.04926 95.1966 7.25056 94.9752 7.14991C94.4115 6.90834 94.4115 6.92848 93.8278 7.12978C93.6063 7.27069 93.4654 7.49213 93.1836 7.55252C92.9622 7.93499 92.7609 8.35773 92.7407 8.82073C92.8212 8.76034 92.9018 8.69995 92.9823 8.63956C93.0427 8.78047 93.5057 8.55903 93.2842 8.98177C93.244 9.04216 93.1232 9.14282 93.2641 9.24347C93.2842 9.22334 93.3044 9.20321 93.3245 9.20321C93.3245 9.24347 93.3245 9.2636 93.3245 9.30386C93.244 9.58568 93.2641 9.84738 93.2641 10.1292C93.2641 10.2097 93.244 10.3305 93.1836 10.3708C92.781 10.6929 93.0024 10.9747 93.1232 11.2968V11.2766C93.2239 10.9747 93.3245 10.6929 93.405 10.411C93.4654 10.1695 93.6466 9.84738 93.6466 9.84738C93.9284 9.34412 94.4115 9.32399 94.633 9.30386H94.6732H94.6934C95.2168 9.30386 95.6395 9.62594 95.9817 9.86751C96.0622 9.9279 96.1428 9.98829 96.2031 10.0286C96.4648 10.1896 96.7467 10.3708 97.0084 10.5318C97.0285 10.5318 97.0285 10.5318 97.0486 10.5318C97.3304 10.5117 97.5318 10.2097 97.8538 10.3104C97.874 10.3104 97.9142 10.25 97.9142 10.2097C97.9545 10.0084 97.7532 9.76686 97.9545 9.56555C97.6928 9.38438 97.7733 9.02203 97.6525 8.86099C97.4311 8.51877 97.9344 8.43825 97.7733 8.19669C98.2766 7.95512 97.9545 7.49213 97.9142 7.2103C97.874 6.78756 97.9344 6.546 98.2363 6.30443C98.3571 6.20378 98.4376 6.16352 98.5181 6.26417C98.7194 6.50574 98.2363 6.2843 98.4175 6.52587C98.8805 6.44535 98.8 6.72717 98.7194 7.04926C98.6188 7.51226 98.5785 7.97525 98.4779 8.43825C98.4175 8.67982 98.5584 8.8006 98.7194 8.86099C98.9409 8.94151 98.9409 8.76034 99.0013 8.5993C99.0818 8.35773 99.3032 8.17656 99.5247 8.09604C99.7461 7.99538 99.9071 7.79408 100.209 7.79408C100.491 7.79408 100.269 7.43173 100.39 7.29082C100.37 7.27069 100.33 7.25056 100.31 7.23043C100.35 7.2103 100.37 7.2103 100.41 7.19017C100.229 6.94861 100.652 7.04926 100.592 6.86808C100.31 6.94861 100.068 6.96874 99.9071 6.64665C99.7863 6.40509 99.9273 6.30443 100.068 6.16352C100.31 5.94209 100.551 5.98235 100.773 6.20378C100.773 5.8817 100.994 5.68039 101.195 5.47909C101.195 5.43883 101.195 5.39857 101.195 5.33818C101.115 5.35831 101.034 5.35831 100.954 5.37844Z" fill="#046839"/>
<path d="M110.294 8.11674C110.415 8.33817 110.516 8.5596 110.496 8.80117C110.435 8.98234 110.496 9.12325 110.657 9.22391C110.697 9.2843 110.737 9.36482 110.757 9.42521C110.757 9.4856 110.757 9.52586 110.777 9.58625C110.777 9.66677 110.717 9.76743 110.657 9.70704C110.455 9.50573 110.133 9.44534 110.033 9.16352C110.194 8.88169 110.033 8.70052 109.811 8.66026C109.509 8.59987 109.871 8.94208 109.67 8.98234C109.328 8.78104 109.348 9.16352 109.247 9.2843C109.167 9.42521 109.268 9.58625 109.449 9.58625C109.952 9.58625 110.133 9.88821 110.194 10.3109C109.992 10.6733 109.59 10.9149 109.57 11.3779C109.449 11.3779 109.288 11.1564 109.227 11.4584C109.026 11.4584 108.925 11.559 108.966 11.7603C109.006 12.0623 109.247 11.9818 109.449 11.9818C109.469 12.0824 109.429 12.2233 109.489 12.2837C109.751 12.5655 109.59 12.6058 109.328 12.6058C108.704 12.6259 108.543 12.9078 108.744 13.4915C108.523 13.5721 108.281 13.4513 108.04 13.5922C108.181 13.8136 108.382 13.9545 108.362 14.2364C108.724 14.0753 108.885 13.6123 109.328 13.6928C109.308 13.8136 109.268 13.9747 109.429 13.9747C109.992 14.0149 109.046 14.3773 109.529 14.4175C109.549 14.4175 109.469 14.5182 109.429 14.5182C109.288 14.5383 109.086 14.6591 109.207 14.337C109.227 14.2565 109.288 14.1357 109.127 14.0552C109.026 14.1558 109.066 14.3773 108.885 14.4175C108.784 14.4377 108.784 14.5585 108.805 14.639C108.825 14.7598 108.945 14.7195 109.026 14.7195C109.147 14.7396 109.288 14.6188 109.469 14.7598C109.086 14.9611 108.704 14.9007 108.342 14.9208C108.221 14.7396 108.12 14.5383 107.919 14.4377C107.818 14.1961 107.456 14.0552 107.718 13.713C107.999 13.3506 107.979 13.2298 107.536 12.948C107.416 12.6259 107.093 12.7266 106.993 12.8272C106.832 13.0285 106.349 13.1292 106.63 13.5519C106.651 13.5721 106.691 13.5721 106.711 13.5721C106.63 13.6526 106.852 14.0552 106.469 13.8338C106.127 13.6727 106.067 13.3506 105.986 13.0487C105.986 12.948 106.087 12.8272 105.906 12.787C105.805 12.3844 106.027 11.9818 105.845 11.4785C105.866 11.9415 105.785 12.2837 105.684 12.6259C105.503 12.3642 105.382 12.2435 105.181 12.6461C105.08 12.8474 104.96 13.0688 104.899 13.2701C104.799 13.5922 104.416 13.713 104.396 14.0351C104.356 14.0552 104.315 14.0753 104.295 14.0955C104.134 13.7734 104.014 13.9344 103.893 14.1156C103.752 14.3169 103.651 14.4779 103.993 14.5786C103.772 14.6994 103.772 14.9007 103.792 15.1221C103.812 15.4241 103.651 15.6254 103.53 15.8669C103.349 16.189 103.007 16.4104 102.987 16.8131C102.886 16.9741 102.625 16.8533 102.544 17.0949C102.504 17.1754 102.202 17.2358 102.081 16.9942C101.9 16.6923 101.9 16.3501 101.86 16.028C101.86 15.9676 101.799 15.9273 101.779 15.8871C101.779 15.6052 101.779 15.3234 101.779 15.0416C101.658 14.7396 101.537 14.4377 101.417 14.1558C101.376 14.0552 101.276 14.0753 101.195 14.0753C100.591 14.1558 100.108 13.9948 99.8063 13.4312C99.8063 13.4312 99.7861 13.4312 99.766 13.411C99.6452 13.3305 99.6654 13.1493 99.7258 13.1091C99.9472 12.948 99.8667 12.7467 99.8868 12.5454C99.8868 12.4448 99.8465 12.2636 99.9472 12.2636C100.39 12.2636 100.269 11.8006 100.491 11.6194C100.531 11.6597 100.551 11.7201 100.591 11.7603C100.692 11.9616 100.873 11.8811 101.014 11.861C101.095 11.861 101.115 11.7603 101.115 11.6798C101.074 11.4584 100.893 11.5389 100.773 11.5188C100.692 11.4986 100.591 11.5188 100.511 11.5188C100.511 11.3779 100.41 11.3779 100.31 11.3577C100.39 11.1766 100.088 10.7941 100.551 10.7941C100.793 10.7941 100.873 10.7337 100.873 10.472C100.873 10.1902 100.752 10.1499 100.531 10.17C100.43 10.1902 100.31 10.17 100.31 10.0291C100.31 9.9486 100.289 9.78756 100.39 9.80769C100.712 9.84795 100.672 9.54599 100.833 9.30443C100.833 9.54599 101.095 9.54599 101.054 9.76743C101.054 9.84795 101.014 9.98886 101.175 9.98886C101.276 9.98886 101.356 9.98886 101.397 9.90834C101.457 9.80769 101.457 9.70704 101.356 9.58625C101.175 9.34469 101.195 9.10312 101.437 8.86156C101.497 8.80117 101.618 8.76091 101.638 8.62C101.699 8.21739 102.021 7.99595 102.323 7.77452C102.363 7.77452 102.403 7.77452 102.463 7.77452C102.484 7.81478 102.484 7.85504 102.504 7.8953C102.484 7.95569 102.504 7.97582 102.564 7.95569C102.625 7.95569 102.685 7.95569 102.745 7.95569C102.765 7.95569 102.806 7.95569 102.826 7.95569C102.886 7.95569 102.967 7.93556 103.027 7.93556C103.007 8.07648 103.047 8.157 103.208 8.17713C103.349 8.17713 103.369 8.09661 103.369 7.97582C103.53 7.97582 103.691 7.99595 103.852 7.97582C104.114 7.93556 104.275 7.81478 104.154 7.51282C104.215 7.45243 104.255 7.39204 104.315 7.33165C104.477 7.17061 104.778 7.13035 104.718 6.80826C104.698 6.64722 104.799 6.54657 104.879 6.46605C105.181 6.16409 104.899 5.92253 104.718 5.88227C104.315 5.80174 104.175 5.54005 104.034 5.21796C104.436 5.13744 104.497 5.66083 104.839 5.6407C105.503 6.18422 106.167 6.74787 107.033 6.94917C106.973 7.00957 106.912 7.04983 106.852 7.11022C107.275 7.13035 107.275 7.13035 107.134 6.78813C107.134 6.768 107.154 6.72774 107.154 6.70761C107.194 6.70761 107.234 6.68748 107.255 6.68748C107.395 6.70761 107.556 6.72774 107.697 6.72774C107.899 7.06996 108.281 7.00957 108.543 6.98944C108.825 6.94917 109.046 6.86865 109.288 7.11022C109.429 7.25113 109.63 7.231 109.811 7.15048C109.831 7.19074 109.871 7.21087 109.892 7.25113C109.912 7.29139 109.952 7.33165 109.972 7.37191C110.012 7.47256 110.053 7.59335 110.093 7.694C110.053 7.77452 110.133 7.75439 110.153 7.77452C110.173 7.81478 110.173 7.83491 110.194 7.87517C110.214 7.8953 110.234 7.91543 110.254 7.95569V7.97582C110.234 8.03621 110.274 8.07648 110.294 8.11674ZM105.644 9.16352C105.664 9.16352 105.664 9.18365 105.684 9.18365C105.664 9.18365 105.644 9.16352 105.644 9.16352C105.423 8.84143 105.121 8.72065 104.738 8.8213C105.08 8.80117 105.282 9.16352 105.644 9.16352ZM103.289 11.7805C103.289 11.7603 103.269 11.6999 103.269 11.6999C102.967 11.7201 102.604 11.3577 102.463 11.4584C102.101 11.7402 102.101 11.4181 101.96 11.2973C101.839 11.1967 101.699 11.1766 101.598 11.2571C101.477 11.3577 101.598 11.4382 101.699 11.4986C101.739 11.5188 101.739 11.6194 101.759 11.6999C101.839 11.9415 102.141 11.8409 102.242 12.022C102.504 11.7201 102.846 11.9214 103.148 11.8409C103.208 11.8409 103.269 11.861 103.289 11.7805ZM106.751 9.7473C106.731 9.78756 106.691 9.80769 106.671 9.84795C107.073 10.1298 107.476 10.4317 107.899 10.7136C107.577 10.2707 107.134 10.0493 106.751 9.7473ZM103.249 11.0356C103.289 11.0356 103.49 11.096 103.47 10.9551C103.43 10.7739 103.148 10.7941 103.007 10.633C102.947 10.5525 102.906 10.7136 102.886 10.7941C102.866 11.0155 102.967 11.096 103.249 11.0356ZM101.296 11.0356C101.195 11.1162 101.054 11.1967 100.994 11.2973C100.934 11.3779 101.014 11.4584 101.135 11.4584C101.276 11.4584 101.417 11.4785 101.397 11.2772C101.397 11.1967 101.437 11.0759 101.296 11.0356ZM106.027 7.99595C105.866 8.13687 105.604 7.53296 105.241 7.91543C105.564 7.99595 105.845 8.01608 106.027 7.99595ZM103.913 9.06286C103.913 9.04273 103.913 9.04273 103.913 9.0226C103.611 9.0226 103.329 9.0226 103.027 9.0226C103.027 9.04273 103.027 9.04273 103.027 9.06286C103.349 9.06286 103.631 9.06286 103.913 9.06286ZM105.221 9.46547C105.463 9.54599 105.644 9.52586 105.886 9.46547C105.644 9.40508 105.463 9.42521 105.221 9.46547ZM107.174 9.38495C106.912 9.32456 106.771 9.32456 106.59 9.38495C106.771 9.44534 106.912 9.44534 107.174 9.38495ZM109.932 7.71413C109.932 7.694 109.912 7.694 109.912 7.67387C109.892 7.67387 109.892 7.694 109.871 7.694C109.871 7.694 109.892 7.71413 109.892 7.73426C109.912 7.71413 109.912 7.71413 109.932 7.71413Z" fill="#046839"/>
<path d="M107.758 16.3293C107.959 15.6449 108.442 15.3027 109.086 15.1014C109.287 15.041 109.469 14.8397 109.63 14.6988C109.811 14.5377 109.972 14.6988 109.932 14.7994C109.771 15.1819 110.133 15.0007 110.213 15.1014C110.073 15.7657 109.63 16.2689 109.328 16.8326C109.308 16.8326 109.287 16.8326 109.267 16.8527C109.046 16.8728 108.986 17.0137 108.965 17.215C108.824 17.1748 108.784 17.2754 108.784 17.3962C108.663 17.3358 108.402 17.3157 108.643 17.1547C108.804 17.0339 108.804 16.9332 108.804 16.7722C108.804 16.4098 108.643 16.2891 108.281 16.4702C108.019 16.591 107.778 16.7521 107.536 16.893C107.637 16.6715 107.697 16.5105 107.758 16.3293Z" fill="#046839"/>
<path d="M102.06 5.94208C102.141 6.26387 101.98 6.52533 101.899 6.82701C101.859 7.00802 101.718 6.90746 101.618 6.92757C101.618 6.82701 101.618 6.72645 101.598 6.62589C101.417 6.1432 101.517 5.9823 102.06 5.94208Z" fill="#046839"/>
<path d="M103.47 7.65166C103.47 7.61144 103.47 7.59132 103.45 7.5511C103.45 7.22931 103.289 6.90751 103.55 6.58572C103.651 6.46504 103.711 6.32426 103.872 6.40471C104.093 6.50527 103.852 6.60583 103.852 6.7265C103.852 6.78684 103.832 6.84717 103.832 6.90751C103.711 6.94773 103.752 7.02818 103.772 7.10863C103.772 7.16897 103.772 7.22931 103.772 7.28964C103.772 7.37009 103.792 7.43043 103.792 7.51088C103.792 7.61144 103.953 7.73211 103.752 7.79245C103.651 7.83267 103.49 7.85278 103.47 7.65166Z" fill="#046839"/>
<path d="M103.773 7.29024C103.773 7.2299 103.773 7.16956 103.773 7.10923C103.793 7.069 103.833 7.04889 103.853 7.00867C103.974 7.00867 104.034 7.069 104.034 7.18968C104.014 7.20979 103.974 7.25001 103.954 7.27013C103.894 7.29024 103.833 7.29024 103.773 7.29024Z" fill="#046839"/>
<path d="M103.673 16.489C103.613 16.0466 103.894 15.7449 104.095 15.4231C104.196 15.2622 104.316 15.2421 104.417 15.3225C104.558 15.4231 104.357 15.4633 104.316 15.5437C104.216 15.7248 104.276 15.946 104.156 16.127C103.954 16.1672 104.055 16.67 103.673 16.489Z" fill="#046839"/>
<path d="M91.1098 28.6903C90.7877 28.4286 90.526 28.2474 90.3247 28.1266C90.1234 28.0058 89.8617 27.9455 89.5597 27.9455C89.2779 27.9455 89.0162 28.026 88.7948 28.187C88.5734 28.3481 88.4325 28.489 88.4123 28.6299C88.3922 28.7507 88.3721 28.8312 88.3721 28.8714C88.3721 28.8916 88.3721 28.9117 88.3721 28.9318C88.3721 29.2539 88.6941 29.6364 89.3383 30.0793C89.9825 30.5221 90.3851 30.8845 90.5663 31.1663C90.7474 31.4481 90.828 31.7501 90.828 32.0722C90.828 32.193 90.8078 32.4144 90.7474 32.7566C90.687 33.0988 90.4455 33.441 89.9825 33.7833C89.5195 34.1456 88.976 34.3268 88.3519 34.3268C88.0298 34.3268 87.748 34.2865 87.4863 34.1859C87.2246 34.0852 86.9428 33.9242 86.6006 33.6625L86.822 32.3339C87.2045 32.7969 87.5064 33.0787 87.7279 33.1995C87.9493 33.3001 88.211 33.3605 88.5331 33.3605C88.8753 33.3605 89.1571 33.28 89.3786 33.119C89.6 32.9579 89.7208 32.7969 89.7611 32.656C89.7812 32.515 89.8013 32.4144 89.8013 32.3943C89.8013 32.3741 89.8013 32.354 89.8013 32.354C89.8013 32.193 89.7208 31.9917 89.5799 31.7903C89.439 31.589 89.1571 31.3475 88.7948 31.0858C88.2714 30.663 87.9091 30.3208 87.6876 30.0591C87.4662 29.7974 87.3655 29.5156 87.3655 29.2539C87.3655 29.1734 87.3857 28.952 87.4461 28.6299C87.5064 28.3078 87.748 27.9656 88.211 27.6234C88.6539 27.261 89.1974 27.1 89.8013 27.1C90.0831 27.1 90.3247 27.1402 90.5461 27.2006C90.7676 27.261 91.0091 27.4019 91.3111 27.5831L91.1098 28.6903Z" fill="#046839"/>
<path d="M92.5797 34.208H91.6738L92.4589 29.578H93.3648L92.5797 34.208ZM93.0226 28.7124C92.8615 28.7124 92.7407 28.6721 92.6602 28.5715C92.5797 28.4909 92.5596 28.3702 92.5797 28.2091C92.5998 28.0481 92.6803 27.9273 92.781 27.8266C92.8817 27.726 93.0226 27.6857 93.1836 27.6857C93.3446 27.6857 93.4654 27.726 93.546 27.8266C93.6265 27.9072 93.6466 28.0279 93.6265 28.189C93.5661 28.5513 93.3648 28.7124 93.0226 28.7124Z" fill="#046839"/>
<path d="M100.855 34.2062H99.9085L100.371 31.3879C100.392 31.2671 100.412 31.1464 100.412 31.0658C100.412 30.5425 100.17 30.2808 99.6669 30.2808C99.4052 30.2808 99.1838 30.321 98.9825 30.4217C98.7812 30.5022 98.5799 30.6632 98.3182 30.8847L97.7545 34.2062H96.8688L97.3318 31.3879C97.3519 31.2671 97.372 31.1464 97.372 31.0658C97.372 30.5425 97.1305 30.2808 96.6272 30.2808C96.3655 30.2808 96.1441 30.321 95.9629 30.4015C95.7616 30.4821 95.5402 30.6431 95.2986 30.8847L94.735 34.2062H93.8291L94.6142 29.5762H95.5201L95.4194 30.1398C95.7214 29.9184 96.0032 29.7574 96.2447 29.6567C96.4863 29.5561 96.7279 29.5158 96.9896 29.5158C97.2714 29.5158 97.513 29.5561 97.7143 29.6567C97.9357 29.7574 98.1169 29.9587 98.2779 30.2808C98.6805 29.9788 99.0026 29.7775 99.224 29.6768C99.4455 29.5762 99.7072 29.5158 99.989 29.5158C100.432 29.5158 100.774 29.6366 101.016 29.858C101.257 30.0795 101.378 30.4015 101.378 30.784C101.378 30.9048 101.378 31.0256 101.338 31.1464L100.855 34.2062Z" fill="#046839"/>
<path d="M103.449 29.8368C103.691 29.716 103.912 29.6153 104.113 29.5549C104.315 29.4946 104.516 29.4744 104.778 29.4744C105.321 29.4744 105.764 29.6556 106.106 30.0179C106.448 30.3803 106.61 30.8433 106.61 31.4271C106.61 31.5076 106.61 31.6082 106.61 31.6888C106.589 31.7693 106.549 32.0109 106.489 32.3732C106.428 32.7355 106.147 33.1583 105.663 33.6012C105.18 34.0642 104.597 34.2856 103.972 34.2856C103.771 34.2856 103.59 34.2655 103.429 34.2252C103.248 34.1849 103.046 34.0843 102.785 33.9232L102.362 36.4999H101.436L102.604 29.5348H103.53L103.449 29.8368ZM102.885 33.1784C103.228 33.3999 103.55 33.5005 103.852 33.5005C104.274 33.5005 104.657 33.3596 104.979 33.0576C105.301 32.7557 105.482 32.4537 105.523 32.1518C105.583 31.8498 105.603 31.6284 105.603 31.5076C105.603 31.1251 105.502 30.8232 105.281 30.6017C105.06 30.3803 104.778 30.2595 104.395 30.2595C104.053 30.2595 103.691 30.3602 103.308 30.5816L102.885 33.1784Z" fill="#046839"/>
<path d="M107.799 34.2053H106.893L108.061 27.1798H108.966L107.799 34.2053Z" fill="#046839"/>
<path d="M110.114 34.208H109.208L109.994 29.578H110.899L110.114 34.208ZM110.577 28.7124C110.416 28.7124 110.296 28.6721 110.215 28.5715C110.134 28.4909 110.114 28.3702 110.134 28.2091C110.155 28.0481 110.235 27.9273 110.336 27.8266C110.436 27.726 110.577 27.6857 110.738 27.6857C110.899 27.6857 111.02 27.726 111.101 27.8266C111.181 27.9072 111.201 28.0279 111.181 28.189C111.101 28.5513 110.899 28.7124 110.577 28.7124Z" fill="#046839"/>
<path d="M114.945 28.0461C114.643 28.0058 114.442 27.9656 114.341 27.9656C113.999 27.9656 113.778 28.0662 113.677 28.2675C113.556 28.4688 113.456 28.8916 113.335 29.576H113.939L113.798 30.3812H113.194L112.55 34.206H111.583L112.228 30.3812H111.624L111.765 29.576H112.369C112.469 28.8513 112.63 28.2675 112.872 27.8246C113.113 27.3818 113.597 27.1603 114.341 27.1603C114.583 27.1603 114.824 27.1805 115.066 27.2409L114.945 28.0461Z" fill="#046839"/>
<path d="M115.207 34.2075H114.301L115.086 29.5776H115.992L115.207 34.2075ZM115.67 28.712C115.509 28.712 115.388 28.6717 115.308 28.571C115.227 28.4905 115.207 28.3697 115.227 28.2087C115.247 28.0477 115.328 27.9269 115.429 27.8262C115.529 27.7256 115.67 27.6853 115.831 27.6853C115.992 27.6853 116.113 27.7256 116.194 27.8262C116.274 27.9067 116.294 28.0275 116.274 28.1886C116.194 28.5509 115.992 28.712 115.67 28.712Z" fill="#046839"/>
<path d="M120.984 32.0316H117.521C117.521 32.4745 117.622 32.8369 117.823 33.0784C118.025 33.32 118.307 33.4408 118.709 33.4408C119.152 33.4408 119.534 33.3804 119.836 33.2596C120.138 33.1388 120.46 32.9778 120.823 32.7765L120.662 33.7025C120.32 33.9038 120.018 34.0447 119.736 34.1453C119.454 34.246 119.071 34.3064 118.568 34.3064C117.944 34.3064 117.461 34.1252 117.099 33.7629C116.736 33.4005 116.555 32.9174 116.555 32.3135C116.555 32.1726 116.595 31.8706 116.656 31.4277C116.736 30.9849 117.018 30.5621 117.521 30.1193C118.025 29.6764 118.608 29.455 119.273 29.455C119.756 29.455 120.199 29.5959 120.541 29.8777C120.903 30.1595 121.085 30.6426 121.085 31.3472C121.044 31.5485 121.024 31.7699 120.984 32.0316ZM120.058 31.4076C120.058 30.6628 119.716 30.2803 119.051 30.2803C118.79 30.2803 118.528 30.3407 118.307 30.4816C118.085 30.6225 117.844 30.9245 117.622 31.4076H120.058Z" fill="#046839"/>
<path d="M125.352 34.2047H124.426L124.487 33.943C124.265 34.0436 124.084 34.1242 123.903 34.1845C123.722 34.2449 123.48 34.2852 123.198 34.2852C122.635 34.2852 122.192 34.104 121.85 33.7215C121.507 33.3592 121.326 32.8761 121.326 32.3124C121.326 32.252 121.326 32.1715 121.346 32.0709C121.366 31.9903 121.387 31.7488 121.447 31.3864C121.507 31.0241 121.789 30.6013 122.292 30.1383C122.796 29.6753 123.359 29.4338 124.004 29.4338C124.225 29.4338 124.406 29.4539 124.607 29.5143C124.789 29.5747 124.99 29.6552 125.191 29.7961L125.634 27.1389H126.56L125.352 34.2047ZM124.607 33.178L125.03 30.5611C124.688 30.3396 124.366 30.239 124.064 30.239C123.581 30.239 123.178 30.4202 122.896 30.7624C122.615 31.1046 122.453 31.4066 122.413 31.6884C122.373 31.9501 122.353 32.1514 122.353 32.2722C122.353 32.6345 122.453 32.9365 122.675 33.1579C122.876 33.3793 123.178 33.5001 123.561 33.5001C123.863 33.48 124.225 33.3793 124.607 33.178Z" fill="#046839"/>
</g>
<defs>
<clipPath id="clip0_4279_42514">
<rect width="144.918" height="36" fill="white" transform="translate(0 0.5)"/>
</clipPath>
</defs>
</svg>

